<?xml version="1.0" encoding="UTF-8"?>
<!DOCTYPE svg PUBLIC "-//W3C//DTD SVG 1.1//EN" "http://www.w3.org/Graphics/SVG/1.1/DTD/svg11.dtd">
<svg xmlns="http://www.w3.org/2000/svg" version="1.1" width="500px" height="500px" style="shape-rendering:geometricPrecision; text-rendering:geometricPrecision; image-rendering:optimizeQuality; fill-rule:evenodd; clip-rule:evenodd" xmlns:xlink="http://www.w3.org/1999/xlink">
<g><path style="opacity:0.893" fill="#4928eb" d="M 204.5,205.5 C 206.6,205.523 208.433,204.856 210,203.5C 216.16,204.812 222.326,204.812 228.5,203.5C 233.886,205.456 239.553,207.789 245.5,210.5C 247.718,209.812 249.218,210.812 250,213.5C 257.14,215.843 263.307,221.343 268.5,230C 268.167,230.333 267.833,230.667 267.5,231C 268.624,231.249 269.624,231.749 270.5,232.5C 271.457,234.918 272.791,237.084 274.5,239C 274.167,239.333 273.833,239.667 273.5,240C 274.636,241.53 275.636,242.863 276.5,244C 276.167,244.333 275.833,244.667 275.5,245C 277.016,246.897 277.683,249.064 277.5,251.5C 278.138,258.225 278.138,265.225 277.5,272.5C 276.167,273.5 276.167,274.5 277.5,275.5C 275.625,285.268 271.458,294.268 265,302.5C 260.839,307.022 256.673,310.856 252.5,314C 247.694,315.986 243.694,318.153 240.5,320.5C 239.833,319.167 239.167,319.167 238.5,320.5C 229.078,325.057 219.078,326.557 208.5,325C 181.77,318.884 165.437,301.218 159.5,272C 160.579,221.842 160.579,171.008 159.5,119.5C 145.167,119.5 130.833,119.5 116.5,119.5C 116.5,206.167 116.5,292.833 116.5,379.5C 212.498,379.667 212.498,380.167 116.5,381C 140.833,381.333 165.167,381.667 189.5,382C 189.03,384.631 189.697,387.131 191.5,389.5C 190.747,395.804 190.247,402.137 190,408.5C 188.667,409.167 187.333,409.833 186,410.5C 153.101,410.534 119.767,409.867 86,408.5C 85.3333,302.833 85.3333,197.167 86,91.5C 110.761,90.6717 135.594,90.1717 160.5,90C 146.833,89.6667 133.167,89.3333 119.5,89C 132.829,88.5001 146.163,88.3334 159.5,88.5C 158.858,65.3381 159.524,42.3381 161.5,19.5C 192.833,18.1667 224.167,18.1667 255.5,19.5C 255.808,20.3081 256.308,20.9747 257,21.5C 257.167,24.6667 257.333,27.8333 257.5,31C 256.572,59.8512 256.239,88.6845 256.5,117.5C 234.329,119.475 211.996,120.141 189.5,119.5C 189.333,150.502 189.5,181.502 190,212.5C 191.333,211.167 192.667,209.833 194,208.5C 195.998,209.271 197.665,208.605 199,206.5C 200.147,207.458 201.147,207.125 202,205.5C 202.977,206.774 203.811,206.774 204.5,205.5 Z M 191.5,53.5 C 202.321,52.5054 213.321,52.1721 224.5,52.5C 224.667,64.1714 224.5,75.8381 224,87.5C 213.243,86.6786 202.41,86.1786 191.5,86C 191.639,75.1124 191.639,64.2791 191.5,53.5 Z M 230.5,234.5 C 233.735,235.489 236.568,237.822 239,241.5C 239.333,241.167 239.667,240.833 240,240.5C 241.886,244.44 244.386,247.94 247.5,251C 247.623,252.789 247.623,254.622 247.5,256.5C 248.167,256.833 248.833,257.167 249.5,257.5C 248.653,262.997 248.319,268.33 248.5,273.5C 247.559,275.05 246.893,276.716 246.5,278.5C 242.997,285.778 237.83,290.778 231,293.5C 229.108,294.13 227.441,295.13 226,296.5C 224.612,295.446 223.112,295.28 221.5,296C 222.5,296.333 223.5,296.667 224.5,297C 220.642,297.81 216.976,297.643 213.5,296.5C 208.228,294.47 203.562,292.137 199.5,289.5C 196.907,286.23 194.574,283.397 192.5,281C 192.833,280.667 193.167,280.333 193.5,280C 192.915,278.698 192.249,277.531 191.5,276.5C 190.27,272.747 189.27,268.914 188.5,265C 189.445,262.911 189.445,260.911 188.5,259C 190.171,257.157 191.171,254.991 191.5,252.5C 192.345,251.329 193.011,249.995 193.5,248.5C 194.954,247.48 195.287,246.313 194.5,245C 196.324,244.34 197.657,243.173 198.5,241.5C 201.641,238.467 204.641,235.967 207.5,234C 208.549,233.508 209.549,233.674 210.5,234.5C 211.192,233.975 211.692,233.308 212,232.5C 212.725,233.059 213.558,233.392 214.5,233.5C 216.167,232.833 217.833,232.167 219.5,231.5C 223.334,233.271 227,234.271 230.5,234.5 Z"/></g>
<g><path style="opacity:0.004" fill="#4928eb" d="M 117.5,88.5 C 118.833,89.1667 118.833,89.1667 117.5,88.5 Z"/></g>
<g><path style="opacity:0.004" fill="#4928eb" d="M 318.5,89.5 C 319.601,88.4017 320.934,88.235 322.5,89C 321.207,89.49 319.873,89.6567 318.5,89.5 Z"/></g>
<g><path style="opacity:0.904" fill="#4928eb" d="M 273.5,380.5 C 284.449,379.545 295.449,379.211 306.5,379.5C 307.305,361.846 307.638,344.179 307.5,326.5C 287.489,326.833 267.489,326.5 247.5,325.5C 246.975,324.808 246.308,324.308 245.5,324C 251.644,320.02 257.644,315.853 263.5,311.5C 267.007,306.83 270.674,302.33 274.5,298C 285.495,297.5 296.495,297.333 307.5,297.5C 307.333,272.831 307.5,248.164 308,223.5C 312.414,222.199 317.081,221.532 322,221.5C 326.5,221.833 331,222.167 335.5,222.5C 335.808,223.308 336.308,223.975 337,224.5C 336.87,276.949 337.037,328.616 337.5,379.5C 352.833,379.5 368.167,379.5 383.5,379.5C 384.033,291.898 384.033,205.231 383.5,119.5C 359.498,119.667 335.498,119.5 311.5,119C 310.02,117.701 309.354,116.034 309.5,114C 309.61,107.585 309.776,101.085 310,94.5C 310.219,93.062 310.719,91.7287 311.5,90.5C 345.072,90.4706 378.739,90.4706 412.5,90.5C 412.667,196.834 412.5,303.167 412,409.5C 387.572,410.328 363.072,410.828 338.5,411C 337.672,433.427 337.172,455.927 337,478.5C 336.167,479.333 335.333,480.167 334.5,481C 303.833,481.667 273.167,481.667 242.5,481C 241.584,480.626 240.75,480.126 240,479.5C 239.5,446.835 239.333,414.168 239.5,381.5C 251.012,381.828 262.346,381.495 273.5,380.5 Z M 272.5,413.5 C 282.833,413.5 293.167,413.5 303.5,413.5C 303.5,425.167 303.5,436.833 303.5,448.5C 293.191,447.478 282.857,447.478 272.5,448.5C 272.5,436.833 272.5,425.167 272.5,413.5 Z"/></g>
<g><path style="opacity:0.004" fill="#4928eb" d="M 309.5,189.5 C 315.653,188.347 321.986,188.18 328.5,189C 322.175,189.5 315.842,189.666 309.5,189.5 Z"/></g>
<g><path style="opacity:0.004" fill="#4928eb" d="M 329.5,189.5 C 330.601,188.402 331.934,188.235 333.5,189C 332.207,189.49 330.873,189.657 329.5,189.5 Z"/></g>
<g><path style="opacity:0.854" fill="#4928eb" d="M 308.5,190.5 C 317.506,190.334 326.506,190.5 335.5,191C 336.126,191.75 336.626,192.584 337,193.5C 337.667,200.167 337.667,206.833 337,213.5C 327.578,214.651 318.078,214.818 308.5,214C 307.182,206.167 307.182,198.334 308.5,190.5 Z"/></g>
<g><path style="opacity:0.004" fill="#4928eb" d="M 212.5,203.5 C 216.311,202.355 220.311,202.188 224.5,203C 220.514,203.499 216.514,203.666 212.5,203.5 Z"/></g>
<g><path style="opacity:0.004" fill="#4928eb" d="M 204.5,205.5 C 203.833,204.167 203.833,204.167 204.5,205.5 Z"/></g>
<g><path style="opacity:0.004" fill="#4928eb" d="M 234.5,204.5 C 235.833,205.167 235.833,205.167 234.5,204.5 Z"/></g>
<g><path style="opacity:0.004" fill="#4928eb" d="M 277.5,251.5 C 278.525,251.897 278.692,252.563 278,253.5C 277.536,252.906 277.369,252.239 277.5,251.5 Z"/></g>
<g><path style="opacity:0.004" fill="#4928eb" d="M 277.5,272.5 C 278.833,273.5 278.833,274.5 277.5,275.5C 277.5,274.5 277.5,273.5 277.5,272.5 Z"/></g>
<g><path style="opacity:0.004" fill="#4928eb" d="M 238.5,320.5 C 239.167,320.5 239.833,320.5 240.5,320.5C 239.833,321.833 239.167,321.833 238.5,320.5 Z"/></g>
<g><path style="opacity:0.004" fill="#4928eb" d="M 273.5,380.5 C 262.828,380.667 252.161,380.5 241.5,380C 252.341,379.175 263.008,379.341 273.5,380.5 Z"/></g>
</svg>
